<svg width="278" height="63" viewBox="0 0 278 63" fill="none" xmlns="http://www.w3.org/2000/svg">
<path d="M68.6366 18.0996C67.3584 18.0996 66.3223 19.1358 66.3223 20.414C66.3223 21.6921 67.3584 22.7283 68.6366 22.7283H74.3047C75.7655 22.7283 76.9496 23.9125 76.9496 25.3732L76.9497 45.1222C76.9497 46.4003 77.9858 47.4365 79.264 47.4365C80.5421 47.4365 81.5783 46.4003 81.5783 45.1222V25.3732C81.5783 23.9125 82.7625 22.7283 84.2232 22.7283H89.8914C91.1695 22.7283 92.2057 21.6921 92.2057 20.414C92.2057 19.1358 91.1695 18.0996 89.8914 18.0996H68.6366Z" fill="#F7E28E"/>
<path d="M68.6366 18.0996C67.3584 18.0996 66.3223 19.1358 66.3223 20.414C66.3223 21.6921 67.3584 22.7283 68.6366 22.7283H74.3047C75.7655 22.7283 76.9496 23.9125 76.9496 25.3732L76.9497 45.1222C76.9497 46.4003 77.9858 47.4365 79.264 47.4365C80.5421 47.4365 81.5783 46.4003 81.5783 45.1222V25.3732C81.5783 23.9125 82.7625 22.7283 84.2232 22.7283H89.8914C91.1695 22.7283 92.2057 21.6921 92.2057 20.414C92.2057 19.1358 91.1695 18.0996 89.8914 18.0996H68.6366Z" fill="url(#paint0_linear)"/>
<path d="M93.0131 31.6938H105.271C106.214 31.6938 106.979 30.929 106.979 29.9856C106.979 29.0422 106.214 28.2774 105.271 28.2774H93.0131C90.1706 28.2774 87.8748 30.6006 87.8748 33.4703V42.2436C87.8748 45.1134 90.1706 47.4365 93.0131 47.4365H105.271C106.214 47.4365 106.979 46.6717 106.979 45.7283C106.979 44.7849 106.214 44.0201 105.271 44.0201H93.0131C92.0565 44.0201 91.2639 43.2275 91.2639 42.2436V41.2808C91.2639 39.8201 92.4481 38.6359 93.9088 38.6359H101.855C102.798 38.6359 103.563 37.8711 103.563 36.9277C103.563 35.9843 102.798 35.2195 101.855 35.2195H93.0131C92.047 35.2195 91.2639 34.4364 91.2639 33.4703C91.2639 32.4864 92.0565 31.6938 93.0131 31.6938Z" fill="#F7E28E"/>
<path d="M93.0131 31.6938H105.271C106.214 31.6938 106.979 30.929 106.979 29.9856C106.979 29.0422 106.214 28.2774 105.271 28.2774H93.0131C90.1706 28.2774 87.8748 30.6006 87.8748 33.4703V42.2436C87.8748 45.1134 90.1706 47.4365 93.0131 47.4365H105.271C106.214 47.4365 106.979 46.6717 106.979 45.7283C106.979 44.7849 106.214 44.0201 105.271 44.0201H93.0131C92.0565 44.0201 91.2639 43.2275 91.2639 42.2436V41.2808C91.2639 39.8201 92.4481 38.6359 93.9088 38.6359H101.855C102.798 38.6359 103.563 37.8711 103.563 36.9277C103.563 35.9843 102.798 35.2195 101.855 35.2195H93.0131C92.047 35.2195 91.2639 34.4364 91.2639 33.4703C91.2639 32.4864 92.0565 31.6938 93.0131 31.6938Z" fill="url(#paint1_linear)"/>
<path d="M118.899 31.6938H126.756C127.7 31.6938 128.465 30.929 128.465 29.9856C128.465 29.0422 127.7 28.2774 126.756 28.2774H118.899C113.597 28.2774 109.333 32.5684 109.333 37.8706C109.333 43.1455 113.597 47.4365 118.899 47.4365H126.756C127.7 47.4365 128.465 46.6717 128.465 45.7283C128.465 44.7849 127.7 44.0201 126.756 44.0201H118.899C115.482 44.0201 112.722 41.2597 112.722 37.8706C112.722 34.4542 115.482 31.6938 118.899 31.6938Z" fill="#F7E28E"/>
<path d="M118.899 31.6938H126.756C127.7 31.6938 128.465 30.929 128.465 29.9856C128.465 29.0422 127.7 28.2774 126.756 28.2774H118.899C113.597 28.2774 109.333 32.5684 109.333 37.8706C109.333 43.1455 113.597 47.4365 118.899 47.4365H126.756C127.7 47.4365 128.465 46.6717 128.465 45.7283C128.465 44.7849 127.7 44.0201 126.756 44.0201H118.899C115.482 44.0201 112.722 41.2597 112.722 37.8706C112.722 34.4542 115.482 31.6938 118.899 31.6938Z" fill="url(#paint2_linear)"/>
<path d="M149.962 28.3048C149.018 28.3048 148.253 29.0695 148.253 30.0129V32.5746C148.253 34.0353 147.069 35.2195 145.608 35.2195H138.599C137.139 35.2195 135.954 34.0353 135.954 32.5746V29.9719C135.954 29.0361 135.196 28.2774 134.26 28.2774C133.324 28.2774 132.565 29.0361 132.565 29.9719V45.7147C132.565 46.6505 133.324 47.4092 134.26 47.4092C135.196 47.4092 135.954 46.6505 135.954 45.7147V41.2808C135.954 39.8201 137.139 38.6359 138.599 38.6359H145.608C147.069 38.6359 148.253 39.8201 148.253 41.2808V45.701C148.253 46.6444 149.018 47.4092 149.962 47.4092C150.905 47.4092 151.67 46.6444 151.67 45.701V30.0129C151.67 29.0695 150.905 28.3048 149.962 28.3048Z" fill="#F7E28E"/>
<path d="M149.962 28.3048C149.018 28.3048 148.253 29.0695 148.253 30.0129V32.5746C148.253 34.0353 147.069 35.2195 145.608 35.2195H138.599C137.139 35.2195 135.954 34.0353 135.954 32.5746V29.9719C135.954 29.0361 135.196 28.2774 134.26 28.2774C133.324 28.2774 132.565 29.0361 132.565 29.9719V45.7147C132.565 46.6505 133.324 47.4092 134.26 47.4092C135.196 47.4092 135.954 46.6505 135.954 45.7147V41.2808C135.954 39.8201 137.139 38.6359 138.599 38.6359H145.608C147.069 38.6359 148.253 39.8201 148.253 41.2808V45.701C148.253 46.6444 149.018 47.4092 149.962 47.4092C150.905 47.4092 151.67 46.6444 151.67 45.701V30.0129C151.67 29.0695 150.905 28.3048 149.962 28.3048Z" fill="url(#paint3_linear)"/>
<path d="M173.201 28.2774C172.25 28.2774 171.48 29.0483 171.48 29.9993V35.0802C171.48 37.2774 168.956 38.5166 167.217 37.173L159.208 30.9832C157.811 29.9107 155.791 30.9063 155.791 32.6671V45.7283C155.791 46.6717 156.556 47.4365 157.5 47.4365C158.443 47.4365 159.208 46.6717 159.208 45.7283V40.6884C159.208 38.4912 161.732 37.252 163.47 38.5956L171.48 44.7854C172.886 45.8682 174.923 44.8655 174.923 43.0905V29.9993C174.923 29.0483 174.152 28.2774 173.201 28.2774Z" fill="#F7E28E"/>
<path d="M173.201 28.2774C172.25 28.2774 171.48 29.0483 171.48 29.9993V35.0802C171.48 37.2774 168.956 38.5166 167.217 37.173L159.208 30.9832C157.811 29.9107 155.791 30.9063 155.791 32.6671V45.7283C155.791 46.6717 156.556 47.4365 157.5 47.4365C158.443 47.4365 159.208 46.6717 159.208 45.7283V40.6884C159.208 38.4912 161.732 37.252 163.47 38.5956L171.48 44.7854C172.886 45.8682 174.923 44.8655 174.923 43.0905V29.9993C174.923 29.0483 174.152 28.2774 173.201 28.2774Z" fill="url(#paint4_linear)"/>
<path d="M187.9 28.3048C182.625 28.3048 178.362 32.5684 178.362 37.8706C178.362 43.1455 182.625 47.4092 187.9 47.4092C193.202 47.4092 197.466 43.1455 197.466 37.8706C197.466 32.5684 193.202 28.3048 187.9 28.3048ZM187.9 44.0201C184.511 44.0201 181.751 41.2597 181.751 37.8433C181.751 34.4542 184.511 31.6938 187.9 31.6938C191.289 31.6938 194.05 34.4542 194.05 37.8433C194.05 41.2597 191.289 44.0201 187.9 44.0201Z" fill="#F7E28E"/>
<path d="M187.9 28.3048C182.625 28.3048 178.362 32.5684 178.362 37.8706C178.362 43.1455 182.625 47.4092 187.9 47.4092C193.202 47.4092 197.466 43.1455 197.466 37.8706C197.466 32.5684 193.202 28.3048 187.9 28.3048ZM187.9 44.0201C184.511 44.0201 181.751 41.2597 181.751 37.8433C181.751 34.4542 184.511 31.6938 187.9 31.6938C191.289 31.6938 194.05 34.4542 194.05 37.8433C194.05 41.2597 191.289 44.0201 187.9 44.0201Z" fill="url(#paint5_linear)"/>
<path d="M206.73 47.0565C208.167 47.0565 209.332 45.8914 209.332 44.4542V20.6061C209.332 19.1688 208.167 18.0037 206.73 18.0037C205.292 18.0037 204.127 19.1688 204.127 20.6061V44.4542C204.127 45.8914 205.292 47.0565 206.73 47.0565Z" fill="#F7E28E"/>
<path d="M206.73 47.0565C208.167 47.0565 209.332 45.8914 209.332 44.4542V20.6061C209.332 19.1688 208.167 18.0037 206.73 18.0037C205.292 18.0037 204.127 19.1688 204.127 20.6061V44.4542C204.127 45.8914 205.292 47.0565 206.73 47.0565Z" fill="url(#paint6_linear)"/>
<path d="M218.299 18.0037C216.838 18.0037 215.654 19.1879 215.654 20.6487V44.4116C215.654 45.8724 216.838 47.0565 218.299 47.0565H230.344C234.374 47.0565 238.026 45.4356 240.67 42.8171C241.006 42.5261 241.257 42.1936 241.509 41.9027C243.692 39.3673 244.993 36.0838 244.993 32.5093C244.993 24.4876 238.403 18.0037 230.344 18.0037H218.299ZM220.858 25.8441C220.858 24.3833 222.043 23.1991 223.503 23.1991H230.344C235.507 23.1991 239.746 27.397 239.746 32.5093C239.746 37.7048 235.507 41.9027 230.344 41.9027H223.503C222.043 41.9027 220.858 40.7185 220.858 39.2577V25.8441Z" fill="#F7E28E"/>
<path d="M218.299 18.0037C216.838 18.0037 215.654 19.1879 215.654 20.6487V44.4116C215.654 45.8724 216.838 47.0565 218.299 47.0565H230.344C234.374 47.0565 238.026 45.4356 240.67 42.8171C241.006 42.5261 241.257 42.1936 241.509 41.9027C243.692 39.3673 244.993 36.0838 244.993 32.5093C244.993 24.4876 238.403 18.0037 230.344 18.0037H218.299ZM220.858 25.8441C220.858 24.3833 222.043 23.1991 223.503 23.1991H230.344C235.507 23.1991 239.746 27.397 239.746 32.5093C239.746 37.7048 235.507 41.9027 230.344 41.9027H223.503C222.043 41.9027 220.858 40.7185 220.858 39.2577V25.8441Z" fill="url(#paint7_linear)"/>
<path d="M277.179 25.9839C277.248 25.9839 277.304 25.9281 277.304 25.8592C277.304 21.495 273.778 17.9622 269.371 17.9622H257.451C253.085 17.9622 249.56 21.495 249.56 25.8592V25.9839C249.56 27.6464 250.063 29.1843 250.945 30.4727C251.239 30.8884 251.616 31.304 251.994 31.6781C253.379 33.0497 255.31 33.8809 257.451 33.8809H268.028C270.253 33.8809 272.099 35.6682 272.099 37.871C272.099 40.0739 270.253 41.8611 268.028 41.8611H258.836C257.504 41.8611 256.332 41.2443 255.592 40.2889C254.711 39.1529 253.599 37.871 252.162 37.871C250.725 37.871 249.522 39.0596 249.924 40.4395C251.038 44.2613 254.581 47.0565 258.836 47.0565H268.028C273.149 47.0565 277.304 42.9418 277.304 37.871C277.304 35.6682 276.549 33.6731 275.205 32.0521C275.121 31.9275 274.996 31.8028 274.87 31.6781C273.191 29.8077 270.756 28.644 268.028 28.644H257.451C255.982 28.644 254.764 27.4802 254.764 25.9839V25.8592C254.764 24.3629 255.982 23.1991 257.451 23.1991H269.371C270.882 23.1991 272.099 24.3629 272.099 25.8592C272.099 25.9281 272.155 25.9839 272.224 25.9839H277.179Z" fill="#F7E28E"/>
<path d="M277.179 25.9839C277.248 25.9839 277.304 25.9281 277.304 25.8592C277.304 21.495 273.778 17.9622 269.371 17.9622H257.451C253.085 17.9622 249.56 21.495 249.56 25.8592V25.9839C249.56 27.6464 250.063 29.1843 250.945 30.4727C251.239 30.8884 251.616 31.304 251.994 31.6781C253.379 33.0497 255.31 33.8809 257.451 33.8809H268.028C270.253 33.8809 272.099 35.6682 272.099 37.871C272.099 40.0739 270.253 41.8611 268.028 41.8611H258.836C257.504 41.8611 256.332 41.2443 255.592 40.2889C254.711 39.1529 253.599 37.871 252.162 37.871C250.725 37.871 249.522 39.0596 249.924 40.4395C251.038 44.2613 254.581 47.0565 258.836 47.0565H268.028C273.149 47.0565 277.304 42.9418 277.304 37.871C277.304 35.6682 276.549 33.6731 275.205 32.0521C275.121 31.9275 274.996 31.8028 274.87 31.6781C273.191 29.8077 270.756 28.644 268.028 28.644H257.451C255.982 28.644 254.764 27.4802 254.764 25.9839V25.8592C254.764 24.3629 255.982 23.1991 257.451 23.1991H269.371C270.882 23.1991 272.099 24.3629 272.099 25.8592C272.099 25.9281 272.155 25.9839 272.224 25.9839H277.179Z" fill="url(#paint8_linear)"/>
<path fill-rule="evenodd" clip-rule="evenodd" d="M23.8527 4.36812C25.2793 3.82424 26.8561 3.82423 28.2827 4.36812L43.9154 10.3281C46.3255 11.247 47.9181 13.5585 47.9181 16.1379V31.1533C47.9181 37.7614 44.5019 43.4482 40.4587 47.8702C36.4103 52.298 31.6676 55.5311 28.8598 57.2449C27.1319 58.2996 25.0035 58.2996 23.2755 57.2449C20.4678 55.5311 15.7251 52.298 11.6766 47.8702C7.63349 43.4482 4.21729 37.7614 4.21729 31.1533V16.1379C4.21729 13.5585 5.80984 11.247 8.22 10.3281L23.8527 4.36812ZM27.7904 5.65918C26.6809 5.23616 25.4545 5.23616 24.3449 5.65918L8.71222 11.6191C6.83765 12.3338 5.599 14.1317 5.599 16.1379V31.1533C5.599 37.2722 8.76605 42.6392 12.6964 46.9379C16.6214 51.2307 21.2423 54.3851 23.9954 56.0655C25.2813 56.8505 26.854 56.8505 28.14 56.0655C30.8931 54.3851 35.514 51.2307 39.439 46.9379C43.3693 42.6392 46.5364 37.2722 46.5364 31.1533V16.1379C46.5364 14.1317 45.2977 12.3338 43.4231 11.6191L27.7904 5.65918Z" fill="#F7E28E"/>
<path fill-rule="evenodd" clip-rule="evenodd" d="M23.8527 4.36812C25.2793 3.82424 26.8561 3.82423 28.2827 4.36812L43.9154 10.3281C46.3255 11.247 47.9181 13.5585 47.9181 16.1379V31.1533C47.9181 37.7614 44.5019 43.4482 40.4587 47.8702C36.4103 52.298 31.6676 55.5311 28.8598 57.2449C27.1319 58.2996 25.0035 58.2996 23.2755 57.2449C20.4678 55.5311 15.7251 52.298 11.6766 47.8702C7.63349 43.4482 4.21729 37.7614 4.21729 31.1533V16.1379C4.21729 13.5585 5.80984 11.247 8.22 10.3281L23.8527 4.36812ZM27.7904 5.65918C26.6809 5.23616 25.4545 5.23616 24.3449 5.65918L8.71222 11.6191C6.83765 12.3338 5.599 14.1317 5.599 16.1379V31.1533C5.599 37.2722 8.76605 42.6392 12.6964 46.9379C16.6214 51.2307 21.2423 54.3851 23.9954 56.0655C25.2813 56.8505 26.854 56.8505 28.14 56.0655C30.8931 54.3851 35.514 51.2307 39.439 46.9379C43.3693 42.6392 46.5364 37.2722 46.5364 31.1533V16.1379C46.5364 14.1317 45.2977 12.3338 43.4231 11.6191L27.7904 5.65918Z" fill="url(#paint9_linear)"/>
<path fill-rule="evenodd" clip-rule="evenodd" d="M22.2191 0.691682C24.7021 -0.230561 27.4336 -0.230561 29.9166 0.691682L44.9307 6.26837C49.262 7.87711 52.1357 12.01 52.1357 16.6304V31.2999C52.1357 38.555 48.5257 44.8162 44.1545 49.747C39.7758 54.6861 34.5187 58.4227 30.9466 60.6585C27.9397 62.5406 24.196 62.5406 21.1891 60.6585C17.617 58.4227 12.3599 54.6861 7.98122 49.747C3.60998 44.8162 0 38.555 0 31.2999V16.6304C0 12.01 2.87371 7.87711 7.20494 6.26837L22.2191 0.691682ZM28.9544 3.28218C27.0922 2.5905 25.0435 2.5905 23.1813 3.28218L8.16713 8.85887C4.9187 10.0654 2.76342 13.1651 2.76342 16.6304V31.2999C2.76342 37.6106 5.90795 43.2426 10.0491 47.9138C14.1828 52.5766 19.1959 56.1509 22.6552 58.3161C24.7653 59.6368 27.3704 59.6368 29.4805 58.3161C32.9398 56.1509 37.9529 52.5766 42.0866 47.9138C46.2277 43.2426 49.3723 37.6106 49.3723 31.2999V16.6304C49.3723 13.1651 47.217 10.0654 43.9686 8.85887L28.9544 3.28218Z" fill="#F7E28E"/>
<path fill-rule="evenodd" clip-rule="evenodd" d="M25.0178 48.9898V16.6062H27.7812L27.7813 48.9898H25.0178Z" fill="url(#paint10_radial)"/>
<path fill-rule="evenodd" clip-rule="evenodd" d="M41.5495 19.9439C29.5636 18.6308 22.5647 18.6418 9.45307 19.9453L9.17969 17.1955C22.4622 15.8749 29.6546 15.8608 41.8504 17.1969L41.5495 19.9439Z" fill="url(#paint11_radial)"/>
<defs>
<linearGradient id="paint0_linear" x1="240.716" y1="17.9622" x2="240.889" y2="47.0565" gradientUnits="userSpaceOnUse">
<stop stop-color="#FFF1B8"/>
<stop offset="1" stop-color="white" stop-opacity="0"/>
</linearGradient>
<linearGradient id="paint1_linear" x1="240.716" y1="17.9622" x2="240.889" y2="47.0565" gradientUnits="userSpaceOnUse">
<stop stop-color="#FFF1B8"/>
<stop offset="1" stop-color="white" stop-opacity="0"/>
</linearGradient>
<linearGradient id="paint2_linear" x1="240.716" y1="17.9622" x2="240.889" y2="47.0565" gradientUnits="userSpaceOnUse">
<stop stop-color="#FFF1B8"/>
<stop offset="1" stop-color="white" stop-opacity="0"/>
</linearGradient>
<linearGradient id="paint3_linear" x1="240.716" y1="17.9622" x2="240.889" y2="47.0565" gradientUnits="userSpaceOnUse">
<stop stop-color="#FFF1B8"/>
<stop offset="1" stop-color="white" stop-opacity="0"/>
</linearGradient>
<linearGradient id="paint4_linear" x1="240.716" y1="17.9622" x2="240.889" y2="47.0565" gradientUnits="userSpaceOnUse">
<stop stop-color="#FFF1B8"/>
<stop offset="1" stop-color="white" stop-opacity="0"/>
</linearGradient>
<linearGradient id="paint5_linear" x1="240.716" y1="17.9622" x2="240.889" y2="47.0565" gradientUnits="userSpaceOnUse">
<stop stop-color="#FFF1B8"/>
<stop offset="1" stop-color="white" stop-opacity="0"/>
</linearGradient>
<linearGradient id="paint6_linear" x1="240.716" y1="17.9622" x2="240.889" y2="47.0565" gradientUnits="userSpaceOnUse">
<stop stop-color="#FFF1B8"/>
<stop offset="1" stop-color="white" stop-opacity="0"/>
</linearGradient>
<linearGradient id="paint7_linear" x1="240.716" y1="17.9622" x2="240.889" y2="47.0565" gradientUnits="userSpaceOnUse">
<stop stop-color="#FFF1B8"/>
<stop offset="1" stop-color="white" stop-opacity="0"/>
</linearGradient>
<linearGradient id="paint8_linear" x1="240.716" y1="17.9622" x2="240.889" y2="47.0565" gradientUnits="userSpaceOnUse">
<stop stop-color="#FFF1B8"/>
<stop offset="1" stop-color="white" stop-opacity="0"/>
</linearGradient>
<linearGradient id="paint9_linear" x1="26.0677" y1="4.26302" x2="26.0677" y2="58.0435" gradientUnits="userSpaceOnUse">
<stop stop-color="white"/>
<stop offset="1" stop-color="white" stop-opacity="0"/>
</linearGradient>
<radialGradient id="paint10_radial" cx="0" cy="0" r="1" gradientUnits="userSpaceOnUse" gradientTransform="translate(25.7347 33.1344) rotate(-93.0761) scale(12.8747 592.89)">
<stop stop-color="#FFED8C"/>
<stop offset="1" stop-color="white" stop-opacity="0"/>
</radialGradient>
<radialGradient id="paint11_radial" cx="0" cy="0" r="1" gradientUnits="userSpaceOnUse" gradientTransform="translate(26.5797 17.1939) rotate(177.709) scale(12.8664 424.592)">
<stop stop-color="#FFEF98"/>
<stop offset="1" stop-color="white" stop-opacity="0"/>
</radialGradient>
</defs>
</svg>
